<svg id="visual" viewBox="0 0 900 600" width="900" height="600" xmlns="http://www.w3.org/2000/svg" xmlns:xlink="http://www.w3.org/1999/xlink" version="1.1"><g stroke-width="1" stroke-linejoin="bevel"><path d="M431 326L425 333L446 403Z" fill="#00101c" stroke="#00101c"></path><path d="M446 403L491 399L431 326Z" fill="#297ea6" stroke="#297ea6"></path><path d="M491 399L489 313L431 326Z" fill="#297ea6" stroke="#297ea6"></path><path d="M491 399L513 324L489 313Z" fill="#297ea6" stroke="#297ea6"></path><path d="M327 305L391 354L425 333Z" fill="#205a7a" stroke="#205a7a"></path><path d="M425 333L391 354L446 403Z" fill="#297ea6" stroke="#297ea6"></path><path d="M573 370L567 326L513 324Z" fill="#277297" stroke="#277297"></path><path d="M571 227L470 242L489 313Z" fill="#205a7a" stroke="#205a7a"></path><path d="M491 399L573 370L513 324Z" fill="#081a28" stroke="#081a28"></path><path d="M491 399L568 398L573 370Z" fill="#0c2435" stroke="#0c2435"></path><path d="M524 477L568 398L491 399Z" fill="#297ea6" stroke="#297ea6"></path><path d="M571 227L489 313L513 324Z" fill="#277297" stroke="#277297"></path><path d="M489 313L470 242L431 326Z" fill="#00101c" stroke="#00101c"></path><path d="M431 326L390 238L425 333Z" fill="#246688" stroke="#246688"></path><path d="M342 436L439 487L446 403Z" fill="#297ea6" stroke="#297ea6"></path><path d="M446 403L439 487L491 399Z" fill="#1d4e6b" stroke="#1d4e6b"></path><path d="M439 487L524 477L491 399Z" fill="#081a28" stroke="#081a28"></path><path d="M470 242L390 238L431 326Z" fill="#297ea6" stroke="#297ea6"></path><path d="M274 343L342 436L391 354Z" fill="#0c2435" stroke="#0c2435"></path><path d="M391 354L342 436L446 403Z" fill="#297ea6" stroke="#297ea6"></path><path d="M390 238L327 305L425 333Z" fill="#081a28" stroke="#081a28"></path><path d="M369 573L456 509L439 487Z" fill="#0c2435" stroke="#0c2435"></path><path d="M439 487L456 509L524 477Z" fill="#00101c" stroke="#00101c"></path><path d="M578 503L589 448L524 477Z" fill="#19435d" stroke="#19435d"></path><path d="M524 477L589 448L568 398Z" fill="#15384f" stroke="#15384f"></path><path d="M568 398L618 399L573 370Z" fill="#15384f" stroke="#15384f"></path><path d="M573 370L644 302L567 326Z" fill="#205a7a" stroke="#205a7a"></path><path d="M526 170L441 202L470 242Z" fill="#277297" stroke="#277297"></path><path d="M470 242L441 202L390 238Z" fill="#0c2435" stroke="#0c2435"></path><path d="M617 410L618 399L568 398Z" fill="#297ea6" stroke="#297ea6"></path><path d="M456 509L496 517L524 477Z" fill="#0c2435" stroke="#0c2435"></path><path d="M589 448L617 410L568 398Z" fill="#112e42" stroke="#112e42"></path><path d="M496 517L513 518L524 477Z" fill="#0c2435" stroke="#0c2435"></path><path d="M390 238L346 238L327 305Z" fill="#00101c" stroke="#00101c"></path><path d="M360 200L346 238L390 238Z" fill="#277297" stroke="#277297"></path><path d="M636 273L571 227L567 326Z" fill="#19435d" stroke="#19435d"></path><path d="M567 326L571 227L513 324Z" fill="#112e42" stroke="#112e42"></path><path d="M448 84L421 189L441 202Z" fill="#0c2435" stroke="#0c2435"></path><path d="M441 202L421 189L390 238Z" fill="#277297" stroke="#277297"></path><path d="M513 518L578 503L524 477Z" fill="#00101c" stroke="#00101c"></path><path d="M589 448L638 444L617 410Z" fill="#205a7a" stroke="#205a7a"></path><path d="M263 429L320 484L342 436Z" fill="#1d4e6b" stroke="#1d4e6b"></path><path d="M342 436L344 517L439 487Z" fill="#081a28" stroke="#081a28"></path><path d="M456 509L501 574L496 517Z" fill="#277297" stroke="#277297"></path><path d="M675 378L644 302L618 399Z" fill="#297ea6" stroke="#297ea6"></path><path d="M618 399L644 302L573 370Z" fill="#00101c" stroke="#00101c"></path><path d="M262 304L274 343L327 305Z" fill="#1d4e6b" stroke="#1d4e6b"></path><path d="M327 305L274 343L391 354Z" fill="#1d4e6b" stroke="#1d4e6b"></path><path d="M421 189L360 200L390 238Z" fill="#1d4e6b" stroke="#1d4e6b"></path><path d="M346 238L282 260L327 305Z" fill="#205a7a" stroke="#205a7a"></path><path d="M644 302L636 273L567 326Z" fill="#112e42" stroke="#112e42"></path><path d="M578 503L638 444L589 448Z" fill="#246688" stroke="#246688"></path><path d="M617 410L675 378L618 399Z" fill="#19435d" stroke="#19435d"></path><path d="M320 484L344 517L342 436Z" fill="#112e42" stroke="#112e42"></path><path d="M496 517L501 574L513 518Z" fill="#19435d" stroke="#19435d"></path><path d="M634 161L526 170L571 227Z" fill="#1d4e6b" stroke="#1d4e6b"></path><path d="M571 227L526 170L470 242Z" fill="#081a28" stroke="#081a28"></path><path d="M345 138L323 174L360 200Z" fill="#1d4e6b" stroke="#1d4e6b"></path><path d="M644 302L638 262L636 273Z" fill="#246688" stroke="#246688"></path><path d="M636 273L638 262L571 227Z" fill="#00101c" stroke="#00101c"></path><path d="M273 232L282 260L346 238Z" fill="#246688" stroke="#246688"></path><path d="M282 260L262 304L327 305Z" fill="#205a7a" stroke="#205a7a"></path><path d="M250 356L263 429L274 343Z" fill="#19435d" stroke="#19435d"></path><path d="M274 343L263 429L342 436Z" fill="#1d4e6b" stroke="#1d4e6b"></path><path d="M357 600L369 573L286 575Z" fill="#246688" stroke="#246688"></path><path d="M638 444L675 378L617 410Z" fill="#246688" stroke="#246688"></path><path d="M680 216L660 214L638 262Z" fill="#297ea6" stroke="#297ea6"></path><path d="M262 304L250 356L274 343Z" fill="#00101c" stroke="#00101c"></path><path d="M454 600L501 574L456 509Z" fill="#297ea6" stroke="#297ea6"></path><path d="M513 518L523 600L578 503Z" fill="#15384f" stroke="#15384f"></path><path d="M323 174L273 232L346 238Z" fill="#297ea6" stroke="#297ea6"></path><path d="M282 260L215 253L262 304Z" fill="#246688" stroke="#246688"></path><path d="M206 328L232 402L250 356Z" fill="#112e42" stroke="#112e42"></path><path d="M360 200L323 174L346 238Z" fill="#112e42" stroke="#112e42"></path><path d="M345 138L360 200L421 189Z" fill="#246688" stroke="#246688"></path><path d="M286 575L344 517L320 484Z" fill="#277297" stroke="#277297"></path><path d="M344 517L369 573L439 487Z" fill="#00101c" stroke="#00101c"></path><path d="M250 356L232 402L263 429Z" fill="#205a7a" stroke="#205a7a"></path><path d="M263 429L243 490L320 484Z" fill="#19435d" stroke="#19435d"></path><path d="M206 328L250 356L262 304Z" fill="#246688" stroke="#246688"></path><path d="M638 444L688 440L675 378Z" fill="#081a28" stroke="#081a28"></path><path d="M682 573L688 440L638 444Z" fill="#1d4e6b" stroke="#1d4e6b"></path><path d="M747 441L688 440L744 497Z" fill="#112e42" stroke="#112e42"></path><path d="M369 573L454 600L456 509Z" fill="#00101c" stroke="#00101c"></path><path d="M680 216L638 262L644 302Z" fill="#277297" stroke="#277297"></path><path d="M638 262L660 214L571 227Z" fill="#277297" stroke="#277297"></path><path d="M726 337L644 302L675 378Z" fill="#15384f" stroke="#15384f"></path><path d="M454 600L513 600L501 574Z" fill="#112e42" stroke="#112e42"></path><path d="M501 574L523 600L513 518Z" fill="#00101c" stroke="#00101c"></path><path d="M323 174L268 209L273 232Z" fill="#277297" stroke="#277297"></path><path d="M194 297L206 328L262 304Z" fill="#246688" stroke="#246688"></path><path d="M513 600L523 600L501 574Z" fill="#00101c" stroke="#00101c"></path><path d="M448 84L345 138L421 189Z" fill="#112e42" stroke="#112e42"></path><path d="M323 174L275 152L268 209Z" fill="#00101c" stroke="#00101c"></path><path d="M714 427L714 378L675 378Z" fill="#112e42" stroke="#112e42"></path><path d="M232 402L243 490L263 429Z" fill="#0c2435" stroke="#0c2435"></path><path d="M215 253L282 260L273 232Z" fill="#19435d" stroke="#19435d"></path><path d="M232 402L158 412L243 490Z" fill="#00101c" stroke="#00101c"></path><path d="M747 441L714 427L688 440Z" fill="#112e42" stroke="#112e42"></path><path d="M688 440L714 427L675 378Z" fill="#246688" stroke="#246688"></path><path d="M726 337L680 216L644 302Z" fill="#246688" stroke="#246688"></path><path d="M660 214L634 161L571 227Z" fill="#277297" stroke="#277297"></path><path d="M690 156L634 161L660 214Z" fill="#00101c" stroke="#00101c"></path><path d="M526 170L448 84L441 202Z" fill="#1d4e6b" stroke="#1d4e6b"></path><path d="M286 575L369 573L344 517Z" fill="#205a7a" stroke="#205a7a"></path><path d="M369 573L357 600L454 600Z" fill="#15384f" stroke="#15384f"></path><path d="M778 358L726 337L714 378Z" fill="#1d4e6b" stroke="#1d4e6b"></path><path d="M714 378L726 337L675 378Z" fill="#0c2435" stroke="#0c2435"></path><path d="M177 201L215 253L268 209Z" fill="#0c2435" stroke="#0c2435"></path><path d="M268 209L215 253L273 232Z" fill="#205a7a" stroke="#205a7a"></path><path d="M690 156L622 136L634 161Z" fill="#277297" stroke="#277297"></path><path d="M634 161L622 136L526 170Z" fill="#297ea6" stroke="#297ea6"></path><path d="M500 85L448 84L526 170Z" fill="#205a7a" stroke="#205a7a"></path><path d="M215 253L194 297L262 304Z" fill="#19435d" stroke="#19435d"></path><path d="M190 511L240 569L243 490Z" fill="#246688" stroke="#246688"></path><path d="M622 136L529 91L526 170Z" fill="#1d4e6b" stroke="#1d4e6b"></path><path d="M529 91L500 85L526 170Z" fill="#0c2435" stroke="#0c2435"></path><path d="M243 490L286 575L320 484Z" fill="#15384f" stroke="#15384f"></path><path d="M345 138L275 152L323 174Z" fill="#081a28" stroke="#081a28"></path><path d="M283 72L275 152L345 138Z" fill="#277297" stroke="#277297"></path><path d="M500 85L499 73L448 84Z" fill="#277297" stroke="#277297"></path><path d="M529 91L499 73L500 85Z" fill="#297ea6" stroke="#297ea6"></path><path d="M502 20L499 73L529 91Z" fill="#15384f" stroke="#15384f"></path><path d="M682 573L638 444L578 503Z" fill="#277297" stroke="#277297"></path><path d="M714 427L765 393L714 378Z" fill="#297ea6" stroke="#297ea6"></path><path d="M523 600L639 600L578 503Z" fill="#297ea6" stroke="#297ea6"></path><path d="M747 441L765 393L714 427Z" fill="#246688" stroke="#246688"></path><path d="M726 337L733 218L680 216Z" fill="#1d4e6b" stroke="#1d4e6b"></path><path d="M791 318L733 218L726 337Z" fill="#00101c" stroke="#00101c"></path><path d="M680 216L690 156L660 214Z" fill="#1d4e6b" stroke="#1d4e6b"></path><path d="M733 218L690 156L680 216Z" fill="#00101c" stroke="#00101c"></path><path d="M622 136L640 86L529 91Z" fill="#15384f" stroke="#15384f"></path><path d="M639 600L682 573L578 503Z" fill="#0c2435" stroke="#0c2435"></path><path d="M158 412L232 402L206 328Z" fill="#277297" stroke="#277297"></path><path d="M243 490L240 569L286 575Z" fill="#112e42" stroke="#112e42"></path><path d="M286 575L263 600L357 600Z" fill="#297ea6" stroke="#297ea6"></path><path d="M133 315L158 412L206 328Z" fill="#19435d" stroke="#19435d"></path><path d="M639 600L660 600L682 573Z" fill="#277297" stroke="#277297"></path><path d="M143 441L190 511L243 490Z" fill="#00101c" stroke="#00101c"></path><path d="M756 577L744 497L682 573Z" fill="#081a28" stroke="#081a28"></path><path d="M682 573L744 497L688 440Z" fill="#246688" stroke="#246688"></path><path d="M862 457L852 391L765 393Z" fill="#1d4e6b" stroke="#1d4e6b"></path><path d="M218 600L263 600L240 569Z" fill="#1d4e6b" stroke="#1d4e6b"></path><path d="M240 569L263 600L286 575Z" fill="#19435d" stroke="#19435d"></path><path d="M852 391L778 358L765 393Z" fill="#277297" stroke="#277297"></path><path d="M765 393L778 358L714 378Z" fill="#15384f" stroke="#15384f"></path><path d="M413 0L389 49L448 84Z" fill="#15384f" stroke="#15384f"></path><path d="M448 84L389 49L345 138Z" fill="#1d4e6b" stroke="#1d4e6b"></path><path d="M85 351L146 428L158 412Z" fill="#1d4e6b" stroke="#1d4e6b"></path><path d="M158 412L143 441L243 490Z" fill="#112e42" stroke="#112e42"></path><path d="M690 156L640 86L622 136Z" fill="#15384f" stroke="#15384f"></path><path d="M499 73L502 20L448 84Z" fill="#00101c" stroke="#00101c"></path><path d="M733 218L706 142L690 156Z" fill="#112e42" stroke="#112e42"></path><path d="M690 156L706 142L640 86Z" fill="#112e42" stroke="#112e42"></path><path d="M202 107L177 201L275 152Z" fill="#205a7a" stroke="#205a7a"></path><path d="M275 152L177 201L268 209Z" fill="#00101c" stroke="#00101c"></path><path d="M215 253L106 261L194 297Z" fill="#15384f" stroke="#15384f"></path><path d="M194 297L133 315L206 328Z" fill="#112e42" stroke="#112e42"></path><path d="M131 445L143 441L146 428Z" fill="#112e42" stroke="#112e42"></path><path d="M146 428L143 441L158 412Z" fill="#00101c" stroke="#00101c"></path><path d="M860 353L791 318L778 358Z" fill="#112e42" stroke="#112e42"></path><path d="M778 358L791 318L726 337Z" fill="#15384f" stroke="#15384f"></path><path d="M733 218L765 175L706 142Z" fill="#205a7a" stroke="#205a7a"></path><path d="M106 261L133 315L194 297Z" fill="#15384f" stroke="#15384f"></path><path d="M349 0L356 40L389 49Z" fill="#205a7a" stroke="#205a7a"></path><path d="M389 49L356 40L345 138Z" fill="#112e42" stroke="#112e42"></path><path d="M356 40L283 72L345 138Z" fill="#0c2435" stroke="#0c2435"></path><path d="M563 0L502 20L529 91Z" fill="#19435d" stroke="#19435d"></path><path d="M283 72L261 84L275 152Z" fill="#246688" stroke="#246688"></path><path d="M85 351L131 445L146 428Z" fill="#277297" stroke="#277297"></path><path d="M143 441L131 445L190 511Z" fill="#081a28" stroke="#081a28"></path><path d="M182 600L218 600L240 569Z" fill="#112e42" stroke="#112e42"></path><path d="M182 600L240 569L190 511Z" fill="#112e42" stroke="#112e42"></path><path d="M660 600L710 600L682 573Z" fill="#297ea6" stroke="#297ea6"></path><path d="M791 318L778 211L733 218Z" fill="#15384f" stroke="#15384f"></path><path d="M642 52L625 49L640 86Z" fill="#277297" stroke="#277297"></path><path d="M640 86L625 49L529 91Z" fill="#0c2435" stroke="#0c2435"></path><path d="M642 52L640 86L748 67Z" fill="#15384f" stroke="#15384f"></path><path d="M778 211L765 175L733 218Z" fill="#112e42" stroke="#112e42"></path><path d="M748 67L640 86L706 142Z" fill="#205a7a" stroke="#205a7a"></path><path d="M563 0L468 0L502 20Z" fill="#246688" stroke="#246688"></path><path d="M261 84L238 83L275 152Z" fill="#0c2435" stroke="#0c2435"></path><path d="M243 21L238 83L261 84Z" fill="#1d4e6b" stroke="#1d4e6b"></path><path d="M243 21L261 84L283 72Z" fill="#112e42" stroke="#112e42"></path><path d="M563 0L529 91L625 49Z" fill="#205a7a" stroke="#205a7a"></path><path d="M502 20L468 0L448 84Z" fill="#081a28" stroke="#081a28"></path><path d="M468 0L413 0L448 84Z" fill="#0c2435" stroke="#0c2435"></path><path d="M356 40L331 0L283 72Z" fill="#15384f" stroke="#15384f"></path><path d="M238 83L202 107L275 152Z" fill="#15384f" stroke="#15384f"></path><path d="M177 201L106 261L215 253Z" fill="#1d4e6b" stroke="#1d4e6b"></path><path d="M710 600L756 577L682 573Z" fill="#205a7a" stroke="#205a7a"></path><path d="M862 457L765 393L747 441Z" fill="#00101c" stroke="#00101c"></path><path d="M710 600L756 578L756 577Z" fill="#00101c" stroke="#00101c"></path><path d="M862 457L747 441L744 497Z" fill="#112e42" stroke="#112e42"></path><path d="M116 523L182 600L190 511Z" fill="#19435d" stroke="#19435d"></path><path d="M112 177L106 261L177 201Z" fill="#15384f" stroke="#15384f"></path><path d="M133 315L85 351L158 412Z" fill="#15384f" stroke="#15384f"></path><path d="M615 0L563 0L625 49Z" fill="#0c2435" stroke="#0c2435"></path><path d="M778 211L806 209L765 175Z" fill="#205a7a" stroke="#205a7a"></path><path d="M641 0L625 49L642 52Z" fill="#0c2435" stroke="#0c2435"></path><path d="M791 318L806 209L778 211Z" fill="#297ea6" stroke="#297ea6"></path><path d="M848 288L806 209L791 318Z" fill="#15384f" stroke="#15384f"></path><path d="M413 0L349 0L389 49Z" fill="#277297" stroke="#277297"></path><path d="M165 24L148 53L202 107Z" fill="#297ea6" stroke="#297ea6"></path><path d="M106 261L87 320L133 315Z" fill="#246688" stroke="#246688"></path><path d="M131 445L116 523L190 511Z" fill="#0c2435" stroke="#0c2435"></path><path d="M84 346L85 351L133 315Z" fill="#297ea6" stroke="#297ea6"></path><path d="M87 320L84 346L133 315Z" fill="#15384f" stroke="#15384f"></path><path d="M349 0L331 0L356 40Z" fill="#081a28" stroke="#081a28"></path><path d="M57 435L116 523L131 445Z" fill="#205a7a" stroke="#205a7a"></path><path d="M57 435L131 445L85 351Z" fill="#297ea6" stroke="#297ea6"></path><path d="M868 547L744 497L756 577Z" fill="#15384f" stroke="#15384f"></path><path d="M795 141L706 142L765 175Z" fill="#205a7a" stroke="#205a7a"></path><path d="M641 0L615 0L625 49Z" fill="#081a28" stroke="#081a28"></path><path d="M860 353L848 288L791 318Z" fill="#0c2435" stroke="#0c2435"></path><path d="M79 142L112 177L82 116Z" fill="#1d4e6b" stroke="#1d4e6b"></path><path d="M202 107L112 177L177 201Z" fill="#112e42" stroke="#112e42"></path><path d="M0 263L0 294L87 320Z" fill="#19435d" stroke="#19435d"></path><path d="M852 391L860 353L778 358Z" fill="#1d4e6b" stroke="#1d4e6b"></path><path d="M842 126L795 141L806 209Z" fill="#0c2435" stroke="#0c2435"></path><path d="M806 209L795 141L765 175Z" fill="#297ea6" stroke="#297ea6"></path><path d="M724 0L641 0L642 52Z" fill="#1d4e6b" stroke="#1d4e6b"></path><path d="M0 336L85 351L84 346Z" fill="#00101c" stroke="#00101c"></path><path d="M112 177L83 225L106 261Z" fill="#15384f" stroke="#15384f"></path><path d="M331 0L243 21L283 72Z" fill="#0c2435" stroke="#0c2435"></path><path d="M710 600L792 600L756 578Z" fill="#277297" stroke="#277297"></path><path d="M756 578L792 600L756 577Z" fill="#00101c" stroke="#00101c"></path><path d="M771 79L748 67L706 142Z" fill="#1d4e6b" stroke="#1d4e6b"></path><path d="M868 547L862 457L744 497Z" fill="#297ea6" stroke="#297ea6"></path><path d="M900 394L900 341L860 353Z" fill="#246688" stroke="#246688"></path><path d="M0 336L84 346L87 320Z" fill="#00101c" stroke="#00101c"></path><path d="M0 336L57 435L85 351Z" fill="#112e42" stroke="#112e42"></path><path d="M72 600L124 600L116 523Z" fill="#1d4e6b" stroke="#1d4e6b"></path><path d="M116 523L124 600L182 600Z" fill="#19435d" stroke="#19435d"></path><path d="M795 141L771 79L706 142Z" fill="#246688" stroke="#246688"></path><path d="M748 67L724 0L642 52Z" fill="#1d4e6b" stroke="#1d4e6b"></path><path d="M900 268L874 243L848 288Z" fill="#00101c" stroke="#00101c"></path><path d="M848 288L874 243L806 209Z" fill="#15384f" stroke="#15384f"></path><path d="M795 141L842 126L771 79Z" fill="#081a28" stroke="#081a28"></path><path d="M900 341L848 288L860 353Z" fill="#0c2435" stroke="#0c2435"></path><path d="M331 0L218 0L243 21Z" fill="#297ea6" stroke="#297ea6"></path><path d="M165 24L202 107L238 83Z" fill="#246688" stroke="#246688"></path><path d="M112 177L79 142L83 225Z" fill="#00101c" stroke="#00101c"></path><path d="M900 394L860 353L852 391Z" fill="#00101c" stroke="#00101c"></path><path d="M900 505L900 394L862 457Z" fill="#112e42" stroke="#112e42"></path><path d="M862 457L900 394L852 391Z" fill="#15384f" stroke="#15384f"></path><path d="M165 24L238 83L243 21Z" fill="#15384f" stroke="#15384f"></path><path d="M218 0L210 0L243 21Z" fill="#277297" stroke="#277297"></path><path d="M82 116L112 177L202 107Z" fill="#246688" stroke="#246688"></path><path d="M0 440L30 500L57 435Z" fill="#081a28" stroke="#081a28"></path><path d="M780 0L724 0L748 67Z" fill="#297ea6" stroke="#297ea6"></path><path d="M780 0L748 67L771 79Z" fill="#205a7a" stroke="#205a7a"></path><path d="M900 198L842 126L806 209Z" fill="#246688" stroke="#246688"></path><path d="M792 600L868 547L756 577Z" fill="#297ea6" stroke="#297ea6"></path><path d="M30 500L41 504L57 435Z" fill="#246688" stroke="#246688"></path><path d="M57 435L41 504L116 523Z" fill="#297ea6" stroke="#297ea6"></path><path d="M900 341L900 268L848 288Z" fill="#246688" stroke="#246688"></path><path d="M874 243L900 198L806 209Z" fill="#246688" stroke="#246688"></path><path d="M148 53L82 116L202 107Z" fill="#19435d" stroke="#19435d"></path><path d="M210 0L165 24L243 21Z" fill="#297ea6" stroke="#297ea6"></path><path d="M792 600L846 600L868 547Z" fill="#00101c" stroke="#00101c"></path><path d="M75 91L82 116L148 53Z" fill="#205a7a" stroke="#205a7a"></path><path d="M0 336L87 320L0 294Z" fill="#15384f" stroke="#15384f"></path><path d="M41 504L72 600L116 523Z" fill="#246688" stroke="#246688"></path><path d="M106 261L0 263L87 320Z" fill="#19435d" stroke="#19435d"></path><path d="M0 526L72 600L41 504Z" fill="#00101c" stroke="#00101c"></path><path d="M868 547L900 505L862 457Z" fill="#00101c" stroke="#00101c"></path><path d="M900 546L900 505L868 547Z" fill="#297ea6" stroke="#297ea6"></path><path d="M900 268L900 213L874 243Z" fill="#00101c" stroke="#00101c"></path><path d="M106 261L83 225L0 263Z" fill="#15384f" stroke="#15384f"></path><path d="M900 213L900 198L874 243Z" fill="#1d4e6b" stroke="#1d4e6b"></path><path d="M0 263L83 225L0 147Z" fill="#205a7a" stroke="#205a7a"></path><path d="M0 336L0 440L57 435Z" fill="#19435d" stroke="#19435d"></path><path d="M30 500L0 526L41 504Z" fill="#277297" stroke="#277297"></path><path d="M92 0L75 91L148 53Z" fill="#112e42" stroke="#112e42"></path><path d="M82 116L55 101L79 142Z" fill="#0c2435" stroke="#0c2435"></path><path d="M0 147L83 225L79 142Z" fill="#277297" stroke="#277297"></path><path d="M900 600L900 546L868 547Z" fill="#19435d" stroke="#19435d"></path><path d="M839 37L771 79L842 126Z" fill="#277297" stroke="#277297"></path><path d="M839 37L780 0L771 79Z" fill="#00101c" stroke="#00101c"></path><path d="M0 440L0 497L30 500Z" fill="#246688" stroke="#246688"></path><path d="M0 23L55 101L75 91Z" fill="#1d4e6b" stroke="#1d4e6b"></path><path d="M75 91L55 101L82 116Z" fill="#1d4e6b" stroke="#1d4e6b"></path><path d="M0 497L0 526L30 500Z" fill="#1d4e6b" stroke="#1d4e6b"></path><path d="M900 84L839 37L842 126Z" fill="#205a7a" stroke="#205a7a"></path><path d="M900 198L900 120L842 126Z" fill="#19435d" stroke="#19435d"></path><path d="M846 600L900 600L868 547Z" fill="#19435d" stroke="#19435d"></path><path d="M900 0L817 0L839 37Z" fill="#277297" stroke="#277297"></path><path d="M839 37L817 0L780 0Z" fill="#205a7a" stroke="#205a7a"></path><path d="M55 101L0 147L79 142Z" fill="#15384f" stroke="#15384f"></path><path d="M900 120L900 84L842 126Z" fill="#1d4e6b" stroke="#1d4e6b"></path><path d="M165 24L92 0L148 53Z" fill="#277297" stroke="#277297"></path><path d="M55 101L0 120L0 147Z" fill="#277297" stroke="#277297"></path><path d="M210 0L92 0L165 24Z" fill="#112e42" stroke="#112e42"></path><path d="M0 23L0 120L55 101Z" fill="#1d4e6b" stroke="#1d4e6b"></path><path d="M0 526L0 600L72 600Z" fill="#19435d" stroke="#19435d"></path><path d="M92 0L46 0L75 91Z" fill="#297ea6" stroke="#297ea6"></path><path d="M900 84L900 0L839 37Z" fill="#1d4e6b" stroke="#1d4e6b"></path><path d="M46 0L0 23L75 91Z" fill="#19435d" stroke="#19435d"></path><path d="M46 0L0 0L0 23Z" fill="#19435d" stroke="#19435d"></path></g></svg>